# 3ds Max Wavefront OBJ Exporter v0.97b - (c)2007 guruware
# File Created: 06.11.2015 14:14:38

mtllib blackbird.mtl

#
# object pPrism4
#

v  1.1750 0.4750 -1.3087
v  0.8370 0.6404 0.1432
v  0.8069 0.5735 -0.4868
v  0.1454 0.8886 -1.0454
v  0.3797 0.6323 -1.4161
v  0.3871 0.3800 -1.3776
v  -0.0812 0.5255 -1.0115
v  -0.0813 0.5350 -1.0083
v  0.4454 0.5092 -0.1610
v  -0.0051 0.7159 0.9173
v  0.8031 0.7042 -0.5067
v  0.1437 0.8902 -1.1107
v  -0.0942 0.8883 -1.1039
v  -0.0915 0.8866 -1.0387
v  -0.0874 0.5336 -1.1546
v  -1.3540 0.4191 -1.2051
v  -0.9236 0.5326 -0.4160
v  -0.9042 0.5951 0.2148
v  -0.3281 0.8834 -1.0252
v  -0.5708 0.3646 -1.3404
v  -0.5794 0.6171 -1.3773
v  -0.5333 0.4853 -0.1221
v  -0.9281 0.6634 -0.4351
v  -0.3318 0.8853 -1.0904
# 24 vertices

vn -0.0274 -0.9939 0.1068
vn 0.2249 -0.9700 0.0922
vn 0.1818 -0.9787 0.0952
vn -0.6709 0.1548 -0.7252
vn 0.0576 0.1161 -0.9916
vn 0.3034 0.0867 -0.9489
vn -0.0784 -0.9914 0.1050
vn -0.2039 -0.9731 0.1076
vn -0.1324 -0.9855 0.1063
vn 0.7799 -0.0721 -0.6218
vn 0.7619 -0.0759 -0.6432
vn 0.3886 0.9151 0.1078
vn -0.2704 0.9567 0.1080
vn -0.1224 0.9871 0.1032
vn 0.5014 0.8593 0.1008
vn -0.9130 -0.0875 -0.3985
vn 0.5961 0.8015 0.0475
vn -0.0064 0.9965 0.0831
vn -0.0076 0.9996 0.0257
vn -0.0064 0.9965 0.0833
vn -0.0063 0.9962 0.0872
vn 0.6755 0.7324 0.0852
vn 0.8403 -0.5412 -0.0319
vn 0.0862 -0.9917 0.0956
vn -0.1237 -0.9871 0.1016
vn -0.1673 -0.9806 0.1023
vn 0.6025 0.1891 -0.7754
vn -0.3739 0.0753 -0.9244
vn -0.1378 0.1159 -0.9837
vn 0.1320 -0.9869 0.0926
vn 0.1847 -0.9787 0.0900
vn 0.2548 -0.9632 0.0860
vn -0.8084 -0.1118 -0.5780
vn -0.8247 -0.1090 -0.5550
vn -0.4261 0.8927 0.1469
vn -0.5363 0.8308 0.1487
vn 0.0808 0.9916 0.1012
vn 0.2300 0.9687 0.0933
vn 0.8796 -0.0393 -0.4741
vn -0.6295 0.7700 0.1040
vn -0.0086 0.9965 0.0834
vn -0.0086 0.9965 0.0836
vn -0.0113 0.9995 0.0289
vn -0.0084 0.9962 0.0873
vn -0.7041 0.6949 0.1463
vn -0.8169 -0.5756 0.0366
# 46 vertex normals

vt 0.3750 0.3125 0.0000
vt 0.4088 0.4312 0.0000
vt 0.4018 0.3125 0.0000
vt 0.4268 0.3125 0.0000
vt 0.4580 0.3125 0.0000
vt 0.4565 0.3125 0.0000
vt 0.4403 0.5417 0.0000
vt 0.4745 0.6615 0.0000
vt 0.4219 0.0209 0.0000
vt 0.5419 0.0902 0.0000
vt 0.5411 0.0898 0.0000
vt 0.4992 0.6435 0.0000
vt 0.6250 0.3125 0.0000
vt 0.5826 0.3125 0.0000
vt 0.4219 0.2896 0.0000
vt 0.4219 0.2856 0.0000
# 16 texture coords

g pPrism4
usemtl lambert1
s off
f 1/1/1 2/2/2 3/3/3 
f 4/1/4 5/1/5 6/4/6 7/5/4 
f 4/1/4 7/5/4 8/6/4 
f 9/7/7 10/8/8 7/5/8 6/4/9 
f 5/1/5 11/1/10 3/3/11 6/4/6 
f 9/7/12 2/2/13 11/1/14 5/1/15 
f 2/2/2 9/7/7 6/4/9 3/3/3 
f 11/1/10 1/1/16 3/3/11 
f 2/2/13 1/1/17 11/1/14 
f 4/9/18 12/9/19 13/10/19 14/11/20 
f 10/12/21 4/13/18 14/14/20 
f 10/8/22 9/7/12 5/1/15 4/1/22 
f 15/15/23 12/9/23 4/9/23 8/16/23 
f 16/1/24 17/3/25 18/2/26 
f 19/1/27 8/6/27 7/5/27 20/4/28 
f 19/1/27 20/4/28 21/1/29 
f 22/7/30 20/4/31 7/5/32 10/8/32 
f 21/1/29 20/4/28 17/3/33 23/1/34 
f 22/7/35 21/1/36 23/1/37 18/2/38 
f 18/2/26 17/3/25 20/4/31 22/7/30 
f 23/1/34 17/3/33 16/1/39 
f 18/2/38 23/1/37 16/1/40 
f 19/9/41 14/11/42 13/10/43 24/9/43 
f 10/12/44 14/14/42 19/13/41 
f 10/8/45 19/1/45 21/1/36 22/7/35 
f 15/15/46 8/16/46 19/9/46 24/9/46 
# 16 polygons - 10 triangles

#
# object sigcolor
#

v  0.1437 0.8902 -1.1107
v  -0.0874 0.5336 -1.1546
v  -0.0942 0.8883 -1.1039
v  -0.3318 0.8853 -1.0904
# 4 vertices

vn -0.0292 0.1408 -0.9896
vn -0.0581 0.1401 -0.9884
# 2 vertex normals

vt 0.4219 0.0209 0.0000
vt 0.4219 0.2896 0.0000
vt 0.5419 0.0902 0.0000
# 3 texture coords

g sigcolor
usemtl lambert1
s off
f 25/17/47 26/18/47 27/19/47 
f 28/17/48 27/19/48 26/18/48 
# 0 polygons - 2 triangles

